<svg width="50" height="50" viewBox="0 0 50 50" fill="none" xmlns="http://www.w3.org/2000/svg">
    <rect width="50" height="50" rx="25" fill="#F7F5E4"/>
    <path d="M9.41696 13.4088H14.2807C16.2961 13.4088 17.733 13.7077 18.5913 14.3053C19.4496 14.9029 19.8788 15.7612 19.8788 16.8802C19.8788 17.4906 19.7675 18.0087 19.545 18.4347C19.3288 18.8607 19.0523 19.1976 18.7153 19.4456C18.3847 19.6936 18.0445 19.862 17.6949 19.951V20.0464C18.0763 20.1418 18.4546 20.3007 18.8297 20.5233C19.2112 20.7394 19.5259 21.0668 19.7739 21.5055C20.0282 21.9379 20.1553 22.526 20.1553 23.2698C20.1553 24.1154 19.9392 24.8434 19.5068 25.4538C19.0809 26.0641 18.4705 26.5346 17.6758 26.8652C16.8811 27.1894 15.9369 27.3516 14.8434 27.3516H9.41696V13.4088ZM13.184 18.759H14.3188C14.9419 18.759 15.3806 18.6318 15.6349 18.3775C15.8892 18.1168 16.0164 17.8021 16.0164 17.4333C16.0164 17.0519 15.8702 16.7626 15.5777 16.5655C15.2916 16.3621 14.8465 16.2603 14.2426 16.2603H13.184V18.759ZM13.184 21.5151V24.4429H14.5096C15.1644 24.4429 15.6222 24.303 15.8829 24.0232C16.1435 23.7371 16.2739 23.3811 16.2739 22.9551C16.2739 22.7072 16.2167 22.4751 16.1022 22.2589C15.9941 22.0364 15.8066 21.8584 15.5396 21.7249C15.2725 21.585 14.9038 21.5151 14.4333 21.5151H13.184ZM30.9147 16.5464V27.3516H28.1013L27.634 26.0069H27.4147C27.1922 26.3693 26.9093 26.6649 26.5659 26.8938C26.229 27.1163 25.8539 27.2784 25.4406 27.3802C25.0273 27.4883 24.5982 27.5423 24.1531 27.5423C23.4474 27.5423 22.8085 27.4056 22.2363 27.1322C21.6704 26.8588 21.219 26.4297 20.882 25.8448C20.5514 25.2598 20.3861 24.5064 20.3861 23.5845V16.5464H24.115V22.4497C24.115 23.149 24.2135 23.6831 24.4106 24.0518C24.6141 24.4142 24.9447 24.5954 25.4025 24.5954C25.8729 24.5954 26.2353 24.4683 26.4896 24.214C26.7503 23.9597 26.9315 23.5845 27.0332 23.0886C27.135 22.5927 27.1858 21.9887 27.1858 21.2767V16.5464H30.9147ZM35.2272 32.0436C33.695 32.0436 32.5124 31.7861 31.6795 31.2712C30.853 30.7625 30.4398 30.0282 30.4398 29.0682C30.4398 28.426 30.64 27.8952 31.0406 27.4755C31.4411 27.0559 32.0419 26.7539 32.843 26.5695C32.5124 26.4297 32.2231 26.204 31.9752 25.8924C31.7336 25.5809 31.6128 25.2726 31.6128 24.9674C31.6128 24.6304 31.705 24.3348 31.8893 24.0805C32.0737 23.8198 32.4584 23.5114 33.0433 23.1554C32.4838 22.9074 32.0419 22.5196 31.7177 21.9919C31.3998 21.4642 31.2408 20.8221 31.2408 20.0655C31.2408 19.2835 31.4189 18.6159 31.7749 18.0628C32.1373 17.5096 32.6618 17.0868 33.3485 16.7944C34.0415 16.5019 34.8839 16.3557 35.8757 16.3557C36.0092 16.3557 36.2127 16.3684 36.4861 16.3938C36.7594 16.4129 37.036 16.4383 37.3158 16.4701C37.5955 16.4956 37.8117 16.521 37.9642 16.5464H41.7313V18.3489L40.2531 18.8925C40.3548 19.0768 40.4311 19.2771 40.4819 19.4933C40.5328 19.7095 40.5582 19.9383 40.5582 20.1799C40.5582 21.3434 40.1482 22.2462 39.328 22.8884C38.5142 23.5305 37.2967 23.8516 35.6754 23.8516C35.2749 23.8516 34.957 23.8261 34.7218 23.7753C34.6773 23.8579 34.6423 23.9406 34.6169 24.0232C34.5978 24.0995 34.5882 24.1726 34.5882 24.2426C34.5882 24.3888 34.6741 24.5064 34.8457 24.5954C35.0238 24.6781 35.2367 24.7353 35.4847 24.7671C35.739 24.7989 35.9806 24.8148 36.2095 24.8148H38.0024C39.2167 24.8148 40.1259 25.0691 40.7299 25.5777C41.3339 26.0864 41.6359 26.8525 41.6359 27.8761C41.6359 29.1922 41.0732 30.2158 39.9479 30.9469C38.8289 31.6781 37.2554 32.0436 35.2272 32.0436ZM35.4084 29.7167C35.8598 29.7167 36.3144 29.6753 36.7722 29.5927C37.2299 29.5164 37.6146 29.3892 37.9261 29.2112C38.2376 29.0332 38.3934 28.798 38.3934 28.5055C38.3934 28.283 38.3012 28.1145 38.1168 28.0001C37.9325 27.892 37.694 27.8189 37.4016 27.7807C37.1091 27.7426 36.8008 27.7235 36.4765 27.7235H35.0269C34.7599 27.7235 34.5151 27.7648 34.2926 27.8475C34.0764 27.9365 33.9048 28.0541 33.7776 28.2003C33.6505 28.3466 33.5869 28.5119 33.5869 28.6962C33.5869 29.0014 33.7522 29.2462 34.0828 29.4306C34.4134 29.6213 34.8553 29.7167 35.4084 29.7167ZM35.9138 21.744C36.2699 21.744 36.5433 21.6073 36.734 21.3339C36.9311 21.0605 37.0296 20.6504 37.0296 20.1036C37.0296 19.5441 36.9375 19.1245 36.7531 18.8448C36.5687 18.565 36.289 18.4252 35.9138 18.4252C35.526 18.4252 35.2367 18.565 35.046 18.8448C34.8553 19.1182 34.7599 19.5314 34.7599 20.0846C34.7599 20.6377 34.8553 21.0541 35.046 21.3339C35.2367 21.6073 35.526 21.744 35.9138 21.744Z" fill="#2F3547"/>
    <path d="M14.2963 36.7657C14.2963 37.1439 14.201 37.5032 14.0102 37.8433C13.8195 38.1803 13.5223 38.4537 13.1186 38.6635C12.718 38.8733 12.1998 38.9782 11.5641 38.9782C11.2462 38.9782 10.9664 38.9639 10.7248 38.9353C10.4864 38.9067 10.2639 38.8606 10.0573 38.797C9.85063 38.7302 9.63605 38.6444 9.41353 38.5395V36.861C9.79182 37.0518 10.1733 37.198 10.5579 37.2997C10.9426 37.3983 11.2907 37.4475 11.6022 37.4475C11.7898 37.4475 11.9424 37.4253 12.06 37.3808C12.1808 37.3363 12.2698 37.2759 12.327 37.1996C12.3842 37.1201 12.4128 37.0295 12.4128 36.9278C12.4128 36.807 12.3699 36.7053 12.2841 36.6226C12.2014 36.5368 12.0679 36.4478 11.8835 36.3556C11.6992 36.2634 11.456 36.1489 11.154 36.0123C10.8965 35.8915 10.6628 35.7675 10.453 35.6403C10.2464 35.5132 10.0684 35.3685 9.91898 35.2064C9.77275 35.0411 9.65989 34.8488 9.58042 34.6294C9.50095 34.4101 9.46121 34.151 9.46121 33.8522C9.46121 33.404 9.57088 33.0288 9.79023 32.7268C10.0128 32.4217 10.3211 32.1928 10.7153 32.0402C11.1127 31.8876 11.5704 31.8113 12.0886 31.8113C12.5432 31.8113 12.9517 31.8622 13.3141 31.9639C13.6796 32.0656 14.0071 32.1817 14.2963 32.312L13.7194 33.7663C13.4206 33.6297 13.1265 33.5216 12.8372 33.4421C12.5479 33.3594 12.2793 33.3181 12.0314 33.3181C11.8692 33.3181 11.7357 33.3388 11.6308 33.3801C11.5291 33.4183 11.4528 33.4707 11.4019 33.5375C11.3543 33.6042 11.3304 33.6805 11.3304 33.7663C11.3304 33.8744 11.3717 33.9714 11.4544 34.0572C11.5402 34.1431 11.6817 34.2368 11.8788 34.3386C12.079 34.4371 12.3508 34.5658 12.6942 34.7248C13.0343 34.8774 13.3236 35.0427 13.562 35.2207C13.8004 35.3955 13.9816 35.6069 14.1056 35.8549C14.2328 36.0997 14.2963 36.4033 14.2963 36.7657ZM21.8102 33.3849C22.4269 33.3849 22.8973 33.5422 23.2216 33.8569C23.549 34.1717 23.7127 34.6755 23.7127 35.3685V38.8828H21.8483V35.9455C21.8483 35.5354 21.7927 35.2509 21.6814 35.092C21.5733 34.9298 21.4112 34.8488 21.195 34.8488C20.893 34.8488 20.6832 34.9807 20.5656 35.2445C20.4512 35.5084 20.3939 35.8819 20.3939 36.3651V38.8828H18.5247V35.9455C18.5247 35.6848 18.5009 35.475 18.4532 35.3161C18.4087 35.1539 18.3404 35.0363 18.2482 34.9632C18.156 34.8869 18.04 34.8488 17.9001 34.8488C17.6871 34.8488 17.5202 34.9139 17.3994 35.0443C17.2818 35.1714 17.1991 35.359 17.1515 35.6069C17.1038 35.8549 17.0799 36.1585 17.0799 36.5177V38.8828H15.2155V33.4802H16.6222L16.894 34.1478H16.9464C17.0418 34.0016 17.1642 33.8713 17.3136 33.7568C17.4662 33.6424 17.6458 33.5518 17.8524 33.485C18.0622 33.4183 18.3006 33.3849 18.5677 33.3849C18.965 33.3849 19.2924 33.4516 19.5499 33.5852C19.8074 33.7187 20.0172 33.903 20.1794 34.1383H20.2366C20.4082 33.8967 20.6292 33.7107 20.8994 33.5804C21.1696 33.45 21.4732 33.3849 21.8102 33.3849ZM27.5692 33.3849C28.2527 33.3849 28.7867 33.555 29.1714 33.8951C29.556 34.2321 29.7483 34.7137 29.7483 35.3399V38.8828H28.4561L28.0985 38.1676H28.0603C27.9078 38.3583 27.7504 38.5141 27.5883 38.6349C27.4293 38.7525 27.2465 38.8383 27.0399 38.8923C26.8333 38.9496 26.5806 38.9782 26.2817 38.9782C25.9702 38.9782 25.6905 38.9146 25.4425 38.7874C25.1945 38.6603 24.999 38.468 24.856 38.2105C24.7129 37.953 24.6414 37.6271 24.6414 37.233C24.6414 36.6544 24.8417 36.2252 25.2422 35.9455C25.6428 35.6658 26.2229 35.5084 26.9827 35.4734L27.8839 35.4448V35.3685C27.8839 35.1269 27.8235 34.9553 27.7027 34.8535C27.5851 34.7518 27.4261 34.701 27.2259 34.701C27.0129 34.701 26.7745 34.7391 26.5106 34.8154C26.2499 34.8885 25.9877 34.9839 25.7238 35.1015L25.185 33.8713C25.4965 33.7123 25.8494 33.5915 26.2436 33.5089C26.6378 33.4262 27.0796 33.3849 27.5692 33.3849ZM27.8934 36.47L27.4643 36.4891C27.121 36.5018 26.8794 36.5622 26.7395 36.6703C26.6028 36.7752 26.5345 36.9262 26.5345 37.1233C26.5345 37.3077 26.5837 37.4444 26.6823 37.5334C26.7808 37.6192 26.9112 37.6621 27.0733 37.6621C27.299 37.6621 27.4913 37.5906 27.6503 37.4475C27.8124 37.3045 27.8934 37.1185 27.8934 36.8896V36.47ZM34.9829 37.2234C34.9829 37.5667 34.9066 37.8703 34.754 38.1342C34.6014 38.398 34.3566 38.6047 34.0197 38.7541C33.6859 38.9035 33.2456 38.9782 32.6988 38.9782C32.3142 38.9782 31.9693 38.9575 31.6641 38.9162C31.3621 38.8749 31.0553 38.7954 30.7438 38.6778V37.1853C31.0839 37.341 31.4304 37.4539 31.7833 37.5238C32.1362 37.5906 32.4143 37.624 32.6178 37.624C32.8276 37.624 32.9802 37.6017 33.0755 37.5572C33.1741 37.5095 33.2233 37.4396 33.2233 37.3474C33.2233 37.2679 33.19 37.2012 33.1232 37.1471C33.0596 37.0899 32.9436 37.0247 32.7751 36.9516C32.6098 36.8785 32.3762 36.78 32.0742 36.656C31.7753 36.532 31.5258 36.3969 31.3255 36.2507C31.1284 36.1044 30.9806 35.9296 30.8821 35.7262C30.7835 35.5227 30.7343 35.2732 30.7343 34.9775C30.7343 34.4498 30.9377 34.0525 31.3446 33.7854C31.7515 33.5184 32.2903 33.3849 32.9611 33.3849C33.3171 33.3849 33.6525 33.4246 33.9672 33.5041C34.2819 33.5804 34.6078 33.6932 34.9447 33.8426L34.4345 35.0443C34.1675 34.9235 33.8973 34.8265 33.6239 34.7534C33.3505 34.6803 33.1327 34.6437 32.9706 34.6437C32.8244 34.6437 32.7115 34.6628 32.6321 34.701C32.5526 34.7391 32.5129 34.7947 32.5129 34.8678C32.5129 34.9346 32.5399 34.9934 32.5939 35.0443C32.6511 35.0951 32.7576 35.1539 32.9134 35.2207C33.0692 35.2875 33.2965 35.3812 33.5953 35.502C33.91 35.6292 34.1691 35.7659 34.3725 35.9121C34.5791 36.0552 34.7317 36.23 34.8303 36.4366C34.932 36.6433 34.9829 36.9055 34.9829 37.2234ZM37.838 31.4632V32.517C37.838 32.9176 37.8284 33.2545 37.8094 33.5279C37.7935 33.7981 37.7776 34.0048 37.7617 34.1478H37.8475C37.9651 33.9603 38.0987 33.8109 38.2481 33.6996C38.3975 33.5883 38.5628 33.5089 38.744 33.4612C38.9252 33.4103 39.1223 33.3849 39.3353 33.3849C39.6913 33.3849 40.0124 33.4532 40.2985 33.5899C40.5877 33.7266 40.8182 33.9412 40.9899 34.2337C41.1615 34.5229 41.2474 34.9012 41.2474 35.3685V38.8828H39.3734V35.936C39.3734 35.5767 39.3209 35.3065 39.216 35.1253C39.1111 34.941 38.949 34.8488 38.7297 34.8488C38.504 34.8488 38.3259 34.9139 38.1956 35.0443C38.0653 35.1714 37.9731 35.359 37.919 35.6069C37.865 35.8517 37.838 36.1521 37.838 36.5082V38.8828H35.9735V31.4632H37.838Z" fill="#2F3547"/>
</svg>
